# xmcd CD database file
#
# Track frame offsets:
#	150
#	22090
#	44232
#	64800
#	89842
#	113835
#	135005
#	157237
#	183334
#	204362
#	227102
#	248422
#	270090
#	290590
#	310940
#
# Disc length: 4430 seconds
#
# Revision: 3
# Processed by: cddbd v1.5.2PL0 Copyright (c) Steve Scherf et al.
# Submitted via: CDex 1.51
#
DISCID=d4114c0f
DTITLE=Seiko Matsuda - Seiko 96-98
DYEAR=1998
DGENRE=JPop
TTITLE0=Touch The Love
TTITLE1=Ashitaeto Kakedashite Yukou
TTITLE2=Crazy Shopper
TTITLE3=Anatani Aitakute - Missing You
TTITLE4=Moshi, Mou Ichido Modorerunara
TTITLE5=Sayonara no Shunkan
TTITLE6=Haranbanjo
TTITLE7=Watashidake no Tenshi - Angel
TTITLE8=Anatano Sono Muneni
TTITLE9=Setsunasugiru Kokoro
TTITLE10=Gone With The Rain
TTITLE11=Koisuru Omoi - Fall in Love
TTITLE12=Forever
TTITLE13=Kazeni Fukarete
TTITLE14=Dear Father
EXTD=YEAR: 1998
EXTT0=
EXTT1=
EXTT2=
EXTT3=
EXTT4=
EXTT5=
EXTT6=
EXTT7=
EXTT8=
EXTT9=
EXTT10=
EXTT11=
EXTT12=
EXTT13=
EXTT14=
PLAYORDER=
